<?xml version="1.0" encoding="UTF-8" standalone="no"?>
<svg xmlns="http://www.w3.org/2000/svg" xmlns:xlink="http://www.w3.org/1999/xlink" xmlns:serif="http://www.serif.com/" width="100%" height="100%" viewBox="0 0 120 80" version="1.1" xml:space="preserve" style="fill-rule:evenodd;clip-rule:evenodd;stroke-linejoin:round;stroke-miterlimit:2;">
    <g transform="matrix(0.00846525,2.08626e-34,-2.08626e-34,-0.00846525,10.6998,76.544)">
        <path d="M0,8700L0,2600L1530,2600L1530,3410L810,3410L810,7890L1530,7890L1530,8700L0,8700Z" style="fill:rgb(207,29,87);fill-rule:nonzero;"></path>
    </g>
    <g transform="matrix(0.00846525,2.08626e-34,-2.08626e-34,-0.00846525,10.6998,76.544)">
        <path d="M10280,8700L10280,7890L11000,7890L11000,3410L10280,3410L10280,2600L11810,2600L11810,8700L10280,8700Z" style="fill:rgb(207,29,87);fill-rule:nonzero;"></path>
    </g>
    <g transform="matrix(0.00846525,2.08626e-34,-2.08626e-34,-0.00846525,10.6998,76.544)">
        <path d="M3358,7118L3355,6456L3314,6492C3242,6558 3107,6635 3008,6668C2744,6756 2395,6728 2146,6600C1895,6471 1714,6249 1612,5944C1526,5687 1501,5331 1546,5010C1594,4677 1712,4424 1905,4242C2034,4121 2181,4045 2358,4008C2489,3981 2735,3986 2854,4018C3011,4061 3183,4158 3330,4285L3405,4350L3411,4060L4060,4060L4060,7780L3360,7780L3358,7118ZM3055,6145C3148,6114 3237,6067 3309,6010L3360,5970L3360,4741L3338,4719C3269,4654 3132,4584 3015,4555C2913,4529 2765,4530 2674,4558C2589,4584 2495,4644 2440,4708C2317,4852 2249,5120 2264,5410C2284,5822 2451,6097 2723,6166C2806,6187 2959,6178 3055,6145Z" style="fill:rgb(23,19,42);fill-rule:nonzero;"></path>
    </g>
    <g transform="matrix(0.00846525,2.08626e-34,-2.08626e-34,-0.00846525,10.6998,76.544)">
        <path d="M8930,6107C8930,4291 8927,4383 8984,4272C9040,4162 9143,4080 9284,4033C9362,4007 9373,4006 9575,4005C9787,4005 9874,4015 10018,4056L10070,4071L10070,4552L10043,4546C10027,4543 9970,4537 9915,4534C9740,4523 9664,4560 9641,4670C9633,4706 9630,5185 9630,6250L9630,7780L8930,7780L8930,6107Z" style="fill:rgb(23,19,42);fill-rule:nonzero;"></path>
    </g>
    <g transform="matrix(0.00846525,2.08626e-34,-2.08626e-34,-0.00846525,10.6998,76.544)">
        <path d="M7060,7390L7060,6660L6640,6660L6640,6160L7059,6160L7063,5398C7067,4585 7067,4585 7118,4440C7196,4217 7352,4078 7599,4012C7687,3989 7712,3987 7895,3987C8103,3986 8209,3998 8390,4041L8480,4062L8480,4332C8480,4584 8479,4601 8463,4596C8326,4553 8123,4525 8032,4536C7945,4546 7876,4576 7836,4620C7769,4694 7770,4684 7770,5462L7770,6160L8470,6160L8470,6660L7770,6660L7770,7390L7060,7390Z" style="fill:rgb(23,19,42);fill-rule:nonzero;"></path>
    </g>
    <g transform="matrix(0.00846525,2.08626e-34,-2.08626e-34,-0.00846525,10.6998,76.544)">
        <path d="M5298,6709C5166,6693 5031,6653 4920,6599C4731,6505 4604,6348 4553,6145C4529,6047 4528,5791 4553,5700C4580,5596 4642,5481 4710,5407C4813,5296 4931,5226 5210,5113C5531,4982 5605,4917 5605,4760C5605,4589 5494,4502 5250,4484C5089,4472 4898,4509 4678,4596C4603,4626 4539,4650 4536,4650C4533,4650 4530,4529 4530,4382L4530,4113L4608,4087C4942,3973 5355,3950 5673,4026C5802,4057 5972,4139 6058,4212C6167,4304 6240,4421 6282,4567C6301,4632 6305,4670 6305,4800C6305,4978 6296,5028 6238,5148C6149,5336 5980,5461 5625,5602C5438,5676 5359,5720 5294,5785C5249,5830 5230,5857 5221,5893C5195,5985 5229,6087 5302,6140C5457,6253 5803,6235 6105,6100L6170,6071L6170,6599L6116,6619C6041,6647 5924,6676 5810,6695C5695,6714 5404,6722 5298,6709Z" style="fill:rgb(23,19,42);fill-rule:nonzero;"></path>
    </g>
    <g transform="matrix(0.00846525,2.08626e-34,-2.08626e-34,-0.00846525,10.6998,76.544)">
        <path d="M870,1070L870,30L1070,30L1072,302L1075,573L1114,593C1197,636 1301,622 1331,562C1341,542 1346,472 1348,283L1351,30L1540,30L1540,314C1540,612 1537,639 1493,698C1454,750 1398,773 1308,773C1237,774 1224,770 1150,734L1070,694L1070,1070L870,1070Z" style="fill-rule:nonzero;"></path>
    </g>
    <g transform="matrix(0.00846525,2.08626e-34,-2.08626e-34,-0.00846525,10.6998,76.544)">
        <path d="M10820,1070L10820,710L10763,742C10713,770 10699,774 10628,773C10558,773 10540,769 10482,739C10356,675 10304,557 10312,355C10316,262 10320,236 10344,185C10395,74 10468,20 10582,12C10659,7 10716,23 10784,69C10809,86 10831,100 10834,100C10837,100 10840,84 10840,65L10840,30L11020,30L11020,1070L10820,1070ZM10783,591L10820,568L10820,395C10820,222 10820,221 10795,202C10781,191 10747,176 10719,170C10615,145 10542,203 10520,328C10500,439 10534,553 10601,598C10645,629 10728,625 10783,591Z" style="fill-rule:nonzero;"></path>
    </g>
    <g transform="matrix(0.00846525,2.08626e-34,-2.08626e-34,-0.00846525,10.6998,76.544)">
        <path d="M4290,1060L4290,870L4490,870L4490,1060L4290,1060Z" style="fill-rule:nonzero;"></path>
    </g>
    <g transform="matrix(0.00846525,2.08626e-34,-2.08626e-34,-0.00846525,10.6998,76.544)">
        <path d="M9960,1060L9960,870L10160,870L10160,1060L9960,1060Z" style="fill-rule:nonzero;"></path>
    </g>
    <g transform="matrix(0.00846525,2.08626e-34,-2.08626e-34,-0.00846525,10.6998,76.544)">
        <path d="M3057,1010C2899,970 2815,832 2850,666C2872,558 2907,529 3142,420C3237,376 3260,350 3260,287C3260,166 3094,149 2858,245C2842,252 2840,244 2840,156L2840,61L2913,38C2972,19 3007,15 3115,15C3227,15 3251,18 3292,37C3364,70 3404,105 3436,162C3462,210 3465,224 3465,311C3465,400 3463,410 3435,456C3397,517 3339,557 3214,606C3110,647 3065,681 3054,725C3028,827 3147,875 3316,832C3360,820 3404,808 3413,804C3429,798 3431,806 3428,891L3425,984L3380,998C3325,1015 3109,1023 3057,1010Z" style="fill-rule:nonzero;"></path>
    </g>
    <g transform="matrix(0.00846525,2.08626e-34,-2.08626e-34,-0.00846525,10.6998,76.544)">
        <path d="M0,1000L0,820L280,820L280,30L490,30L490,820L770,820L770,1000L0,1000Z" style="fill-rule:nonzero;"></path>
    </g>
    <g transform="matrix(0.00846525,2.08626e-34,-2.08626e-34,-0.00846525,10.6998,76.544)">
        <path d="M8110,1000L8110,30L8320,30L8320,1000L8110,1000Z" style="fill-rule:nonzero;"></path>
    </g>
    <g transform="matrix(0.00846525,2.08626e-34,-2.08626e-34,-0.00846525,10.6998,76.544)">
        <path d="M1960,770C1769,737 1661,556 1691,321C1703,226 1737,155 1796,100C1874,28 1915,15 2060,16C2156,16 2199,21 2245,36L2305,56L2308,133C2310,175 2309,210 2308,210C2306,210 2277,200 2245,188C2162,157 2021,156 1971,185C1925,212 1900,249 1893,298L1887,340L2333,340L2328,443C2324,527 2319,556 2295,608C2250,708 2172,763 2060,773C2030,776 1985,775 1960,770ZM2099,594C2126,572 2150,519 2150,483C2150,473 2117,470 2019,470L1887,470L1893,507C1905,579 1953,620 2027,620C2057,620 2077,613 2099,594Z" style="fill-rule:nonzero;"></path>
    </g>
    <g transform="matrix(0.00846525,2.08626e-34,-2.08626e-34,-0.00846525,10.6998,76.544)">
        <path d="M3885,770C3703,745 3585,616 3573,429C3559,238 3625,108 3770,41C3843,7 3976,0 4084,25L4160,41L4160,122C4160,194 4158,201 4143,195C4088,174 3991,159 3950,165C3833,183 3780,255 3780,397C3781,518 3818,581 3907,611C3942,622 4052,619 4113,604L4140,598L4140,758L4098,763C4005,776 3942,778 3885,770Z" style="fill-rule:nonzero;"></path>
    </g>
    <g transform="matrix(0.00846525,2.08626e-34,-2.08626e-34,-0.00846525,10.6998,76.544)">
        <path d="M4907,770C4801,751 4721,688 4672,581C4634,501 4628,342 4659,242C4685,155 4746,83 4828,43C4882,17 4892,15 5015,16C5119,17 5156,21 5200,37L5255,57L5258,135C5261,206 5259,212 5243,205C5233,201 5196,189 5160,178C5083,155 4973,158 4923,183C4881,205 4849,252 4843,300L4837,340L5280,340L5280,424C5280,632 5184,757 5010,773C4980,776 4934,774 4907,770ZM5045,604C5069,588 5100,525 5100,490C5100,471 5093,470 4969,470L4837,470L4843,507C4850,551 4877,590 4911,607C4945,625 5016,623 5045,604Z" style="fill-rule:nonzero;"></path>
    </g>
    <g transform="matrix(0.00846525,2.08626e-34,-2.08626e-34,-0.00846525,10.6998,76.544)">
        <path d="M5810,770C5749,759 5717,745 5664,709L5620,679L5620,760L5440,760L5440,30L5630,30L5630,293C5630,587 5627,573 5703,605C5784,638 5876,613 5897,550C5905,527 5909,433 5909,273L5910,30L6112,30L6108,313C6103,625 6098,656 6038,717C5991,766 5901,787 5810,770Z" style="fill-rule:nonzero;"></path>
    </g>
    <g transform="matrix(0.00846525,2.08626e-34,-2.08626e-34,-0.00846525,10.6998,76.544)">
        <path d="M6555,769C6478,758 6381,710 6339,663C6322,642 6295,601 6281,570C6257,520 6255,504 6255,385C6255,263 6257,252 6283,198C6323,116 6395,55 6482,29C6541,11 6568,8 6653,13C6709,16 6772,23 6793,30L6830,41L6830,198L6788,185C6636,140 6521,169 6479,264C6416,407 6468,580 6584,611C6623,622 6729,618 6793,604L6821,597L6818,676C6815,750 6814,754 6789,760C6740,773 6615,778 6555,769Z" style="fill-rule:nonzero;"></path>
    </g>
    <g transform="matrix(0.00846525,2.08626e-34,-2.08626e-34,-0.00846525,10.6998,76.544)">
        <path d="M7170,767C6992,727 6888,543 6918,323C6937,185 7001,92 7109,41C7160,17 7175,15 7290,16C7387,16 7427,20 7470,36L7525,55L7528,132L7531,208L7455,184C7356,153 7270,152 7210,183C7157,209 7120,260 7120,306L7120,340L7560,340L7560,413C7559,587 7497,705 7379,754C7328,775 7233,781 7170,767ZM7329,594C7356,572 7380,519 7380,483C7380,473 7347,470 7250,470L7120,470L7120,495C7120,598 7251,660 7329,594Z" style="fill-rule:nonzero;"></path>
    </g>
    <g transform="matrix(0.00846525,2.08626e-34,-2.08626e-34,-0.00846525,10.6998,76.544)">
        <path d="M8890,770C8831,760 8778,737 8735,704L8700,678L8700,760L8510,760L8510,30L8710,30L8712,302L8715,573L8754,593C8837,636 8941,622 8971,562C8981,542 8986,472 8988,282L8991,30L9180,30L9180,308C9180,463 9175,601 9170,621C9138,736 9028,795 8890,770Z" style="fill-rule:nonzero;"></path>
    </g>
    <g transform="matrix(0.00846525,2.08626e-34,-2.08626e-34,-0.00846525,10.6998,76.544)">
        <path d="M9522,770C9447,759 9381,715 9352,660C9332,622 9329,603 9332,538C9336,431 9360,402 9503,333C9616,277 9638,255 9626,206C9611,147 9481,132 9377,178L9330,199L9330,41L9368,30C9437,9 9600,6 9664,24C9746,48 9804,107 9820,183C9847,314 9796,395 9652,455C9557,495 9520,524 9520,560C9520,627 9631,652 9740,611L9791,592L9785,744L9745,756C9687,773 9583,779 9522,770Z" style="fill-rule:nonzero;"></path>
    </g>
    <g transform="matrix(0.00846525,2.08626e-34,-2.08626e-34,-0.00846525,10.6998,76.544)">
        <path d="M11440,770C11332,751 11251,689 11204,587C11177,528 11175,518 11175,390C11175,263 11177,252 11203,199C11235,133 11302,67 11368,37C11433,7 11635,6 11725,36L11785,56L11788,133C11790,175 11789,210 11788,210C11786,210 11757,200 11725,188C11642,157 11501,156 11451,185C11405,212 11380,249 11373,298L11367,340L11813,340L11808,443C11801,604 11747,702 11640,748C11586,772 11502,781 11440,770ZM11564,608C11592,596 11630,528 11630,492C11630,470 11627,470 11499,470L11367,470L11373,507C11388,598 11480,647 11564,608Z" style="fill-rule:nonzero;"></path>
    </g>
    <g transform="matrix(0.00846525,2.08626e-34,-2.08626e-34,-0.00846525,10.6998,76.544)">
        <path d="M4290,760L4290,30L4490,30L4490,760L4290,760Z" style="fill-rule:nonzero;"></path>
    </g>
    <g transform="matrix(0.00846525,2.08626e-34,-2.08626e-34,-0.00846525,10.6998,76.544)">
        <path d="M9960,760L9960,30L10160,30L10160,760L9960,760Z" style="fill-rule:nonzero;"></path>
    </g>
</svg>
