<?xml version="1.0" encoding="UTF-8" standalone="no"?>
<svg xmlns="http://www.w3.org/2000/svg" xmlns:xlink="http://www.w3.org/1999/xlink" xmlns:serif="http://www.serif.com/" width="100%" height="100%" viewBox="0 0 2292 1146" version="1.1" xml:space="preserve" style="fill-rule:evenodd;clip-rule:evenodd;stroke-linejoin:round;stroke-miterlimit:2;">
    <g transform="matrix(4.16667,0,0,4.16667,-547.917,-491.667)">
        <path d="M509.966,247.828C502.666,246.478 493.086,245.767 489.971,241.344C485.291,234.7 491.137,225.034 506.449,225.938C520.31,226.755 522.2,237.452 522.391,241.612L542.386,241.612C542.659,233.778 539.414,225.671 534.547,220.537C528.34,214.054 513.745,207.292 495.648,210.003C485.915,211.348 472.947,217.021 468.619,229.727C464.835,241.612 468.619,252.418 475.914,258.096C485.104,265.124 502.349,267.229 509.423,268.641C517.976,270.349 524.327,271.492 523.271,280.591C522.162,290.153 507.34,292.875 497.533,289.71C490.542,287.453 487.533,281.871 486.183,274.309L465.113,274.309C465.113,283.893 470.814,294.005 476.587,298.647C485.148,305.531 494.877,307.953 506.118,307.953C520.882,307.953 533.099,304.148 540.498,293.222C544.376,287.493 548.604,274.309 541.843,262.423C535.902,252.152 522.391,249.989 509.966,247.828Z" style="fill:rgb(0,50,71);fill-rule:nonzero;"></path>
        <path d="M440.246,222.699C431.663,212.89 416.635,207.293 401.341,209.725C372.645,214.288 365.62,241.479 364.321,250.262C361.89,266.704 366.755,294.304 395.668,305.116C409.17,310.245 426.199,308.356 439.167,298.9C446.462,293.488 453.758,281.336 454.297,273.764L430.249,273.764C429.443,277.009 427.549,281.336 423.226,284.576C413.493,291.6 402.419,287.01 397.552,283.493C390.257,278.092 387.557,269.178 387.557,256.474C387.557,238.883 395.643,228.465 409.608,228.465C422.245,228.465 430.058,239.338 429.443,248.367L395.391,248.367L395.391,265.391L454.297,265.391C455.735,249.365 448.288,231.89 440.246,222.699Z" style="fill:rgb(0,50,71);fill-rule:nonzero;"></path>
        <path d="M615.435,278.287C613.473,283.931 608.176,288.074 598.145,289.393C584.91,291.131 575.869,282.915 581.592,272.336C587.338,261.713 608.5,265.48 616.518,257.747C616.518,259.907 616.867,274.162 615.435,278.287ZM639.759,281.798L639.759,252.612C639.759,248.187 639.224,237.538 637.869,230.455C636.894,225.355 632.497,217.62 624.078,213.423C616.741,209.766 611.097,209.108 599.15,209.108C581.193,209.108 561.865,215.353 561.038,241.261L582.65,241.261C582.65,231.886 589.145,226.35 599.089,226.35C608.819,226.35 617.071,231.59 615.173,240.184C613.274,248.778 597.405,249.098 587.264,250.451C575.504,252.02 559.701,257.474 555.918,273.959C554.567,280.444 555.646,292.333 565.642,300.167C572.402,305.301 579.584,307.467 589.154,307.467C601.363,307.467 611.626,302.151 617.334,296.927C617.601,298.277 618.95,303.41 620.034,304.767L642.73,304.767C639.214,297.738 639.759,286.843 639.759,281.798Z" style="fill:rgb(0,50,71);fill-rule:nonzero;"></path>
        <path d="M210.889,266.578C205.531,266.578 201.189,262.236 201.189,256.879C201.189,251.522 205.531,247.179 210.889,247.179C216.246,247.179 220.588,251.522 220.588,256.879C220.588,262.236 216.246,266.578 210.889,266.578ZM286.14,310.089C247.845,296.868 240.76,261.443 250.305,236.642C259.834,211.842 293.217,200.266 316.381,216.883C339.555,233.507 337.095,265.391 337.095,265.391L277.691,265.391L277.691,248.367L312.167,248.367C312.167,248.367 313.128,241.729 307.392,235.417C299.742,226.998 288.773,227.095 281.641,231.196C272.753,236.307 266.655,254.54 271.417,270.571C276.179,286.603 290.736,292.973 304.742,292.973C325.029,292.973 340.127,278.949 340.158,255.99C340.236,217.944 314.58,183.256 276.024,173.472C230.512,161.929 184.26,189.464 172.709,234.976C161.166,280.487 188.697,326.745 234.21,338.291C266.698,346.531 299.561,334.863 319.912,310.957C310.277,313.803 298.83,314.468 286.14,310.089Z" style="fill:rgb(0,50,71);fill-rule:nonzero;"></path>
    </g>
</svg>
